# Blender v2.92.0 OBJ File: ''
# www.blender.org
mtllib Core.mtl
o 円錐
v 0.000000 0.834587 -0.555329
v -0.392677 0.834587 -0.392677
v -0.555329 0.834587 -0.000000
v -0.392677 0.834587 0.392677
v 0.000000 0.834587 0.555329
v 0.392677 0.834587 0.392677
v 0.555329 0.834587 -0.000001
v 0.392676 0.834587 -0.392677
v -0.000000 -0.572901 0.000000
v 0.000000 0.519360 -1.000000
v -0.707107 0.519360 -0.707107
v -1.000000 0.519360 -0.000000
v -0.707107 0.519360 0.707107
v 0.000000 0.519360 1.000000
v 0.707107 0.519360 0.707106
v 1.000000 0.519360 -0.000001
v 0.707106 0.519360 -0.707108
vt 0.692559 0.082640
vt 1.000000 0.416954
vt 0.566705 0.280786
vt 0.568197 0.478369
vt 0.997524 0.559646
vt 0.997524 0.995794
vt 0.801700 0.585991
vt 0.623249 0.738493
vt 0.566705 0.927818
vt 1.000000 0.081277
vt 0.872036 0.000000
vt 0.348531 0.125999
vt 0.440707 0.218175
vt 0.440707 0.348531
vt 0.348531 0.440707
vt 0.218175 0.440707
vt 0.125999 0.348531
vt 0.125999 0.218175
vt 0.218175 0.125999
vt 0.696161 0.559646
vt 0.400721 0.000000
vt 0.566705 0.165984
vt 0.566705 0.400721
vt 0.400721 0.566705
vt 0.165984 0.566705
vt 0.000000 0.400721
vt 0.000000 0.165984
vt 0.165985 0.000000
vn 0.2922 -0.6458 -0.7054
vn -0.2922 -0.6458 -0.7054
vn -0.7054 -0.6458 0.2922
vn -0.2922 -0.6458 0.7054
vn 0.2922 -0.6458 0.7054
vn 0.7054 -0.6458 0.2922
vn 0.0000 1.0000 0.0000
vn 0.7054 -0.6458 -0.2922
vn -0.7054 -0.6458 -0.2922
vn -0.2330 0.7934 -0.5624
vn -0.5624 0.7934 -0.2330
vn -0.5624 0.7934 0.2330
vn -0.2330 0.7934 0.5624
vn 0.2330 0.7934 0.5624
vn 0.5624 0.7934 0.2330
vn 0.5624 0.7934 -0.2330
vn 0.2330 0.7934 -0.5624
usemtl マテリアル
s off
f 17/1/1 9/2/1 10/3/1
f 10/3/2 9/2/2 11/4/2
f 12/5/3 9/6/3 13/7/3
f 13/7/4 9/6/4 14/8/4
f 14/8/5 9/6/5 15/9/5
f 15/10/6 9/2/6 16/11/6
f 1/12/7 2/13/7 3/14/7 4/15/7 5/16/7 6/17/7 7/18/7 8/19/7
f 16/11/8 9/2/8 17/1/8
f 11/4/9 9/2/9 12/20/9
f 2/13/10 1/12/10 10/21/10 11/22/10
f 3/14/11 2/13/11 11/22/11 12/23/11
f 4/15/12 3/14/12 12/23/12 13/24/12
f 5/16/13 4/15/13 13/24/13 14/25/13
f 6/17/14 5/16/14 14/25/14 15/26/14
f 7/18/15 6/17/15 15/26/15 16/27/15
f 8/19/16 7/18/16 16/27/16 17/28/16
f 1/12/17 8/19/17 17/28/17 10/21/17
